grf
version=1
nRows=9
nColumns=37
inDegrees=no
endheader
time	ground_force_1_vx	ground_force_1_vy	ground_force_1_vz	ground_force_1_px	ground_force_1_py	ground_force_1_pz	ground_moment_1_mx	ground_moment_1_my	ground_moment_1_mz	ground_force_2_vx	ground_force_2_vy	ground_force_2_vz	ground_force_2_px	ground_force_2_py	ground_force_2_pz	ground_moment_2_mx	ground_moment_2_my	ground_moment_2_mz	ground_force_3_vx	ground_force_3_vy	ground_force_3_vz	ground_force_3_px	ground_force_3_py	ground_force_3_pz	ground_moment_3_mx	ground_moment_3_my	ground_moment_3_mz	ground_force_4_vx	ground_force_4_vy	ground_force_4_vz	ground_force_4_px	ground_force_4_py	ground_force_4_pz	ground_moment_4_mx	ground_moment_4_my	ground_moment_4_mz
      3.13000000	      0.00000000	     -0.00000000	      0.00000000	      0.00000000	      0.00000000	      0.00000000	      0.00000000	      0.00000000	      0.00000000	      9.64988422	     -5.58494377	   -833.50463867	   -298.59199173	  -1124.67762428	      0.00000000	      0.00000000	     -0.00000000	   -227.29469640	      0.00000000	     -0.00000000	      0.00000000	      0.00000000	      0.00000000	      0.00000000	      0.00000000	      0.00000000	      0.00000000	    -34.79702618	     16.09151381	     75.86566925	    601.90197758	   -561.25931920	      0.00000000	      0.00000000	     -0.00000000	   -150.23297630
      3.14000000	      0.00000000	     -0.00000000	      0.00000000	      0.00000000	      0.00000000	      0.00000000	      0.00000000	      0.00000000	      0.00000000	      9.81529427	     -2.19997382	   -827.39691162	   -298.26708329	  -1126.24938015	      0.00000000	      0.00000000	     -0.00000000	   -665.13873842	      0.00000000	     -0.00000000	      0.00000000	      0.00000000	      0.00000000	      0.00000000	      0.00000000	      0.00000000	      0.00000000	    -34.59245158	     16.28450696	     75.91540527	    603.75491989	   -561.78122532	      0.00000000	     -0.00000000	     -0.00000000	   -270.20071490
      3.15000000	      0.00000000	     -0.00000000	      0.00000000	      0.00000000	      0.00000000	      0.00000000	      0.00000000	      0.00000000	      0.00000000	     10.80726719	      1.95589912	   -822.04113770	   -298.09424634	  -1128.34633906	      0.00000000	      0.00000000	     -0.00000000	  -1063.32266027	      0.00000000	     -0.00000000	      0.00000000	      0.00000000	      0.00000000	      0.00000000	      0.00000000	      0.00000000	      0.00000000	    -35.20346692	     16.07666896	     76.61639404	    599.69675568	   -563.36424403	      0.00000000	      0.00000000	      0.00000000	    111.07961618
      3.16000000	      0.00000000	     -0.00000000	      0.00000000	      0.00000000	      0.00000000	      0.00000000	      0.00000000	      0.00000000	      0.00000000	     11.24052429	      3.70031071	   -819.78027344	   -297.44083602	  -1131.16868564	      0.00000000	      0.00000000	     -0.00000000	  -1642.16971091	      0.00000000	     -0.00000000	      0.00000000	      0.00000000	      0.00000000	      0.00000000	      0.00000000	      0.00000000	      0.00000000	    -34.91976405	     16.22567864	     76.21735382	    603.44951710	   -564.20744051	      0.00000000	      0.00000000	     -0.00000000	    -59.76456812
      3.17000000	      0.00000000	     -0.00000000	      0.00000000	      0.00000000	      0.00000000	      0.00000000	      0.00000000	      0.00000000	      0.00000000	     11.67116642	      6.40199232	   -822.66528320	   -297.09330946	  -1132.36224881	      0.00000000	      0.00000000	     -0.00000000	  -1877.95503463	      0.00000000	     -0.00000000	      0.00000000	      0.00000000	      0.00000000	      0.00000000	      0.00000000	      0.00000000	      0.00000000	    -35.11050654	     16.28450701	     75.74462891	    605.60368394	   -562.76729139	      0.00000000	      0.00000000	     -0.00000000	   -204.23234719
      3.18000000	      0.00000000	     -0.00000000	      0.00000000	      0.00000000	      0.00000000	      0.00000000	      0.00000000	      0.00000000	      0.00000000	     11.70204639	      7.27417469	   -825.56518555	   -296.45394416	  -1132.69805664	      0.00000000	      0.00000000	     -0.00000000	  -2145.74201591	      0.00000000	     -0.00000000	      0.00000000	      0.00000000	      0.00000000	      0.00000000	      0.00000000	      0.00000000	      0.00000000	    -34.94702767	     16.50729676	     76.27915192	    603.62854361	   -565.15310629	      0.00000000	      0.00000000	     -0.00000000	   -178.02136100
      3.19000000	      0.00000000	     -0.00000000	      0.00000000	      0.00000000	      0.00000000	      0.00000000	      0.00000000	      0.00000000	      0.00000000	     13.39306068	      7.07236433	   -826.68719482	   -295.91364931	  -1133.37672468	      0.00000000	      0.00000000	     -0.00000000	  -1893.57288138	      0.00000000	     -0.00000000	      0.00000000	      0.00000000	      0.00000000	      0.00000000	      0.00000000	      0.00000000	      0.00000000	    -34.88880016	     16.21032066	     76.26131439	    601.60946095	   -565.73191806	      0.00000000	      0.00000000	      0.00000000	     67.70923497
      3.20000000	      0.00000000	     -0.00000000	      0.00000000	      0.00000000	      0.00000000	      0.00000000	      0.00000000	      0.00000000	      0.00000000	     13.14515591	      8.09527493	   -825.73474121	   -295.58897135	  -1133.58204053	      0.00000000	      0.00000000	     -0.00000000	  -1956.19451934	      0.00000000	     -0.00000000	      0.00000000	      0.00000000	      0.00000000	      0.00000000	      0.00000000	      0.00000000	      0.00000000	    -34.78864910	     16.16793937	     76.32216644	    604.25474855	   -563.39773475	      0.00000000	      0.00000000	     -0.00000000	   -220.16286756
      3.21000000	      0.00000000	     -0.00000000	      0.00000000	      0.00000000	      0.00000000	      0.00000000	      0.00000000	      0.00000000	      0.00000000	     14.31589699	      8.28912735	   -827.14746094	   -295.04249887	  -1134.64829238	      0.00000000	      0.00000000	     -0.00000000	  -1994.37879802	      0.00000000	     -0.00000000	      0.00000000	      0.00000000	      0.00000000	      0.00000000	      0.00000000	      0.00000000	      0.00000000	    -34.97826244	     16.15227814	     74.33982086	    610.73685585	   -562.87866744	      0.00000000	      0.00000000	     -0.00000000	   -121.09480986
